<mxfile host="app.diagrams.net" agent="Mozilla/5.0 (Macintosh; Intel Mac OS X 10.15; rv:132.0) Gecko/20100101 Firefox/132.0" version="24.8.6">
  <diagram name="Page-1" id="oy5OYli3H4s_pctuCAjO">
    <mxGraphModel dx="1459" dy="726" grid="0" gridSize="10" guides="1" tooltips="1" connect="1" arrows="1" fold="1" page="0" pageScale="1" pageWidth="850" pageHeight="1100" math="0" shadow="0">
      <root>
        <mxCell id="0" />
        <mxCell id="1" parent="0" />
        <mxCell id="Q2pFIkF7qx4FGtjD1cxp-1" value="&lt;div&gt;&lt;b&gt;ParkingLots&lt;/b&gt;&lt;/div&gt;" style="swimlane;fontStyle=0;childLayout=stackLayout;horizontal=1;startSize=30;horizontalStack=0;resizeParent=1;resizeParentMax=0;resizeLast=0;collapsible=1;marginBottom=0;whiteSpace=wrap;html=1;strokeWidth=3;fillColor=none;" vertex="1" parent="1">
          <mxGeometry x="-63" y="143" width="275" height="120" as="geometry" />
        </mxCell>
        <mxCell id="Q2pFIkF7qx4FGtjD1cxp-2" value="id&lt;span style=&quot;white-space: pre;&quot;&gt;&#x9;&lt;/span&gt;&lt;span style=&quot;white-space: pre;&quot;&gt;&#x9;&lt;span style=&quot;white-space: pre;&quot;&gt;&#x9;&lt;span style=&quot;white-space: pre;&quot;&gt;&#x9;&lt;/span&gt;&lt;/span&gt;&lt;/span&gt;uuid&lt;span style=&quot;white-space: pre;&quot;&gt;&#x9;&lt;/span&gt;&lt;span style=&quot;white-space: pre;&quot;&gt;&#x9;&lt;/span&gt;&lt;span style=&quot;white-space: pre;&quot;&gt;&#x9;&lt;/span&gt;&lt;span style=&quot;white-space: pre;&quot;&gt;&#x9;&lt;/span&gt;[PK, NN]" style="text;fillColor=none;align=left;verticalAlign=middle;spacingLeft=4;spacingRight=4;overflow=hidden;points=[[0,0.5],[1,0.5]];portConstraint=eastwest;rotatable=0;whiteSpace=wrap;html=1;strokeWidth=1;strokeColor=default;" vertex="1" parent="Q2pFIkF7qx4FGtjD1cxp-1">
          <mxGeometry y="30" width="275" height="30" as="geometry" />
        </mxCell>
        <mxCell id="Q2pFIkF7qx4FGtjD1cxp-3" value="name&lt;span style=&quot;white-space: pre;&quot;&gt;&#x9;&lt;/span&gt;&lt;span style=&quot;white-space: pre;&quot;&gt;&#x9;&lt;/span&gt;&lt;span style=&quot;white-space: pre;&quot;&gt;&#x9;&lt;/span&gt;varchar(100)&lt;span style=&quot;white-space: pre;&quot;&gt;&#x9;&lt;/span&gt;&lt;span style=&quot;white-space: pre;&quot;&gt;&#x9;&lt;/span&gt;[NN]" style="text;fillColor=none;align=left;verticalAlign=middle;spacingLeft=4;spacingRight=4;overflow=hidden;points=[[0,0.5],[1,0.5]];portConstraint=eastwest;rotatable=0;whiteSpace=wrap;html=1;strokeWidth=1;strokeColor=default;" vertex="1" parent="Q2pFIkF7qx4FGtjD1cxp-1">
          <mxGeometry y="60" width="275" height="30" as="geometry" />
        </mxCell>
        <mxCell id="Q2pFIkF7qx4FGtjD1cxp-4" value="total_spaces&lt;span style=&quot;white-space: pre;&quot;&gt;&#x9;&lt;/span&gt;&lt;span style=&quot;white-space: pre;&quot;&gt;&#x9;&lt;/span&gt;int&lt;span style=&quot;white-space: pre;&quot;&gt;&#x9;&lt;/span&gt;&lt;span style=&quot;white-space: pre;&quot;&gt;&#x9;&lt;span style=&quot;white-space: pre;&quot;&gt;&#x9;&lt;/span&gt;&lt;/span&gt;&lt;span style=&quot;white-space: pre;&quot;&gt;&#x9;&lt;/span&gt;[NN]" style="text;fillColor=none;align=left;verticalAlign=middle;spacingLeft=4;spacingRight=4;overflow=hidden;points=[[0,0.5],[1,0.5]];portConstraint=eastwest;rotatable=0;whiteSpace=wrap;html=1;strokeWidth=3;" vertex="1" parent="Q2pFIkF7qx4FGtjD1cxp-1">
          <mxGeometry y="90" width="275" height="30" as="geometry" />
        </mxCell>
        <mxCell id="Q2pFIkF7qx4FGtjD1cxp-25" style="edgeStyle=orthogonalEdgeStyle;rounded=0;orthogonalLoop=1;jettySize=auto;html=1;exitX=1;exitY=0.5;exitDx=0;exitDy=0;entryX=0;entryY=0.5;entryDx=0;entryDy=0;" edge="1" parent="1" source="Q2pFIkF7qx4FGtjD1cxp-5" target="Q2pFIkF7qx4FGtjD1cxp-12">
          <mxGeometry relative="1" as="geometry" />
        </mxCell>
        <mxCell id="Q2pFIkF7qx4FGtjD1cxp-5" value="&lt;div&gt;LoRaSensors&lt;/div&gt;" style="swimlane;fontStyle=1;childLayout=stackLayout;horizontal=1;startSize=30;horizontalStack=0;resizeParent=1;resizeParentMax=0;resizeLast=0;collapsible=1;marginBottom=0;whiteSpace=wrap;html=1;strokeWidth=3;fillColor=none;" vertex="1" parent="1">
          <mxGeometry x="-63" y="317" width="275" height="90" as="geometry" />
        </mxCell>
        <mxCell id="Q2pFIkF7qx4FGtjD1cxp-6" value="id&lt;span style=&quot;white-space: pre;&quot;&gt;&#x9;&lt;/span&gt;&lt;span style=&quot;white-space: pre;&quot;&gt;&#x9;&lt;/span&gt;&lt;span style=&quot;white-space: pre;&quot;&gt;&#x9;&lt;/span&gt;&lt;span style=&quot;white-space: pre;&quot;&gt;&#x9;&lt;/span&gt;uuid&lt;span style=&quot;white-space: pre;&quot;&gt;&#x9;&lt;/span&gt;&lt;span style=&quot;white-space: pre;&quot;&gt;&#x9;&lt;/span&gt;&lt;span style=&quot;white-space: pre;&quot;&gt;&#x9;&lt;span style=&quot;white-space: pre;&quot;&gt;&#x9;&lt;/span&gt;&lt;/span&gt;[PK, NN]" style="text;fillColor=none;align=left;verticalAlign=middle;spacingLeft=4;spacingRight=4;overflow=hidden;points=[[0,0.5],[1,0.5]];portConstraint=eastwest;rotatable=0;whiteSpace=wrap;html=1;strokeWidth=1;strokeColor=default;" vertex="1" parent="Q2pFIkF7qx4FGtjD1cxp-5">
          <mxGeometry y="30" width="275" height="30" as="geometry" />
        </mxCell>
        <mxCell id="Q2pFIkF7qx4FGtjD1cxp-7" value="secret&lt;span style=&quot;white-space: pre;&quot;&gt;&#x9;&lt;/span&gt;&lt;span style=&quot;white-space: pre;&quot;&gt;&#x9;&lt;/span&gt;&lt;span style=&quot;white-space: pre;&quot;&gt;&#x9;&lt;/span&gt;char(100)&lt;span style=&quot;white-space: pre;&quot;&gt;&#x9;&lt;/span&gt;&lt;span style=&quot;white-space: pre;&quot;&gt;&#x9;&lt;/span&gt;[NN]" style="text;fillColor=none;align=left;verticalAlign=middle;spacingLeft=4;spacingRight=4;overflow=hidden;points=[[0,0.5],[1,0.5]];portConstraint=eastwest;rotatable=0;whiteSpace=wrap;html=1;strokeWidth=1;strokeColor=default;" vertex="1" parent="Q2pFIkF7qx4FGtjD1cxp-5">
          <mxGeometry y="60" width="275" height="30" as="geometry" />
        </mxCell>
        <mxCell id="Q2pFIkF7qx4FGtjD1cxp-9" value="ParkingSpaces" style="swimlane;fontStyle=1;childLayout=stackLayout;horizontal=1;startSize=30;horizontalStack=0;resizeParent=1;resizeParentMax=0;resizeLast=0;collapsible=1;marginBottom=0;whiteSpace=wrap;html=1;strokeWidth=3;fillColor=none;" vertex="1" parent="1">
          <mxGeometry x="266" y="143" width="275" height="180" as="geometry" />
        </mxCell>
        <mxCell id="Q2pFIkF7qx4FGtjD1cxp-10" value="&lt;div&gt;id&lt;span style=&quot;white-space: pre;&quot;&gt;&#x9;&lt;/span&gt;&lt;span style=&quot;white-space: pre;&quot;&gt;&#x9;&lt;/span&gt;&lt;span style=&quot;white-space: pre;&quot;&gt;&#x9;&lt;/span&gt;&lt;span style=&quot;white-space: pre;&quot;&gt;&#x9;&lt;/span&gt;uuid&lt;span style=&quot;white-space: pre;&quot;&gt;&#x9;&lt;/span&gt;&lt;span style=&quot;white-space: pre;&quot;&gt;&#x9;&lt;/span&gt;&lt;span style=&quot;white-space: pre;&quot;&gt;&#x9;&lt;/span&gt;&lt;span style=&quot;white-space: pre;&quot;&gt;&#x9;&lt;/span&gt;[PK, NN]&lt;/div&gt;" style="text;fillColor=none;align=left;verticalAlign=middle;spacingLeft=4;spacingRight=4;overflow=hidden;points=[[0,0.5],[1,0.5]];portConstraint=eastwest;rotatable=0;whiteSpace=wrap;html=1;strokeWidth=1;strokeColor=default;" vertex="1" parent="Q2pFIkF7qx4FGtjD1cxp-9">
          <mxGeometry y="30" width="275" height="30" as="geometry" />
        </mxCell>
        <mxCell id="Q2pFIkF7qx4FGtjD1cxp-11" value="&lt;div&gt;lot_id&lt;span style=&quot;white-space: pre;&quot;&gt;&#x9;&lt;/span&gt;&lt;span style=&quot;white-space: pre;&quot;&gt;&#x9;&lt;/span&gt;&lt;span style=&quot;white-space: pre;&quot;&gt;&#x9;&lt;/span&gt;uuid&lt;span style=&quot;white-space: pre;&quot;&gt;&#x9;&lt;/span&gt;&lt;span style=&quot;white-space: pre;&quot;&gt;&#x9;&lt;/span&gt;&lt;span style=&quot;white-space: pre;&quot;&gt;&#x9;&lt;/span&gt;&lt;span style=&quot;white-space: pre;&quot;&gt;&#x9;&lt;/span&gt;[NN]&lt;/div&gt;" style="text;fillColor=none;align=left;verticalAlign=middle;spacingLeft=4;spacingRight=4;overflow=hidden;points=[[0,0.5],[1,0.5]];portConstraint=eastwest;rotatable=0;whiteSpace=wrap;html=1;strokeWidth=1;strokeColor=default;" vertex="1" parent="Q2pFIkF7qx4FGtjD1cxp-9">
          <mxGeometry y="60" width="275" height="30" as="geometry" />
        </mxCell>
        <mxCell id="Q2pFIkF7qx4FGtjD1cxp-12" value="&lt;div&gt;sensor_id&lt;span style=&quot;white-space: pre;&quot;&gt;&#x9;&lt;/span&gt;&lt;span style=&quot;white-space: pre;&quot;&gt;&#x9;&lt;/span&gt;uuid&lt;span style=&quot;white-space: pre;&quot;&gt;&#x9;&lt;/span&gt;&lt;span style=&quot;white-space: pre;&quot;&gt;&#x9;&lt;/span&gt;&lt;span style=&quot;white-space: pre;&quot;&gt;&#x9;&lt;span style=&quot;white-space: pre;&quot;&gt;&#x9;&lt;/span&gt;&lt;/span&gt;[NN]&lt;/div&gt;" style="text;fillColor=none;align=left;verticalAlign=middle;spacingLeft=4;spacingRight=4;overflow=hidden;points=[[0,0.5],[1,0.5]];portConstraint=eastwest;rotatable=0;whiteSpace=wrap;html=1;strokeWidth=1;strokeColor=default;" vertex="1" parent="Q2pFIkF7qx4FGtjD1cxp-9">
          <mxGeometry y="90" width="275" height="30" as="geometry" />
        </mxCell>
        <mxCell id="Q2pFIkF7qx4FGtjD1cxp-20" value="occupied&lt;span style=&quot;white-space: pre;&quot;&gt;&#x9;&lt;/span&gt;&lt;span style=&quot;white-space: pre;&quot;&gt;&#x9;&lt;/span&gt;&lt;span style=&quot;white-space: pre;&quot;&gt;&#x9;&lt;/span&gt;bool&lt;span style=&quot;white-space: pre;&quot;&gt;&#x9;&lt;/span&gt;&lt;span style=&quot;white-space: pre;&quot;&gt;&#x9;&lt;/span&gt;&lt;span style=&quot;white-space: pre;&quot;&gt;&#x9;&lt;span style=&quot;white-space: pre;&quot;&gt;&#x9;&lt;/span&gt;&lt;/span&gt;[NN]" style="text;fillColor=none;align=left;verticalAlign=middle;spacingLeft=4;spacingRight=4;overflow=hidden;points=[[0,0.5],[1,0.5]];portConstraint=eastwest;rotatable=0;whiteSpace=wrap;html=1;strokeWidth=1;strokeColor=default;" vertex="1" parent="Q2pFIkF7qx4FGtjD1cxp-9">
          <mxGeometry y="120" width="275" height="30" as="geometry" />
        </mxCell>
        <mxCell id="Q2pFIkF7qx4FGtjD1cxp-23" value="update_at&lt;span style=&quot;white-space: pre;&quot;&gt;&#x9;&lt;/span&gt;&lt;span style=&quot;white-space: pre;&quot;&gt;&#x9;&lt;/span&gt;timestamp&lt;span style=&quot;white-space: pre;&quot;&gt;&#x9;&lt;span style=&quot;white-space: pre;&quot;&gt;&#x9;&lt;/span&gt;&lt;/span&gt;[NN]" style="text;fillColor=none;align=left;verticalAlign=middle;spacingLeft=4;spacingRight=4;overflow=hidden;points=[[0,0.5],[1,0.5]];portConstraint=eastwest;rotatable=0;whiteSpace=wrap;html=1;strokeWidth=1;strokeColor=default;" vertex="1" parent="Q2pFIkF7qx4FGtjD1cxp-9">
          <mxGeometry y="150" width="275" height="30" as="geometry" />
        </mxCell>
        <mxCell id="Q2pFIkF7qx4FGtjD1cxp-13" value="EventLog" style="swimlane;fontStyle=1;childLayout=stackLayout;horizontal=1;startSize=30;horizontalStack=0;resizeParent=1;resizeParentMax=0;resizeLast=0;collapsible=1;marginBottom=0;whiteSpace=wrap;html=1;strokeWidth=3;fillColor=none;" vertex="1" parent="1">
          <mxGeometry x="591" y="143" width="275" height="150" as="geometry">
            <mxRectangle x="299" y="217" width="86" height="30" as="alternateBounds" />
          </mxGeometry>
        </mxCell>
        <mxCell id="Q2pFIkF7qx4FGtjD1cxp-14" value="id&lt;span style=&quot;white-space: pre;&quot;&gt;&#x9;&lt;/span&gt;&lt;span style=&quot;white-space: pre;&quot;&gt;&#x9;&lt;/span&gt;&lt;span style=&quot;white-space: pre;&quot;&gt;&#x9;&lt;/span&gt;&lt;span style=&quot;white-space: pre;&quot;&gt;&#x9;&lt;/span&gt;uuid&lt;span style=&quot;white-space: pre;&quot;&gt;&#x9;&lt;/span&gt;&lt;span style=&quot;white-space: pre;&quot;&gt;&#x9;&lt;/span&gt;&lt;span style=&quot;white-space: pre;&quot;&gt;&#x9;&lt;/span&gt;&lt;span style=&quot;white-space: pre;&quot;&gt;&#x9;&lt;/span&gt;[PK, NN]" style="text;fillColor=none;align=left;verticalAlign=middle;spacingLeft=4;spacingRight=4;overflow=hidden;points=[[0,0.5],[1,0.5]];portConstraint=eastwest;rotatable=0;whiteSpace=wrap;html=1;strokeWidth=1;strokeColor=default;" vertex="1" parent="Q2pFIkF7qx4FGtjD1cxp-13">
          <mxGeometry y="30" width="275" height="30" as="geometry" />
        </mxCell>
        <mxCell id="Q2pFIkF7qx4FGtjD1cxp-15" value="&lt;div&gt;space_id&lt;span style=&quot;white-space: pre;&quot;&gt;&#x9;&lt;/span&gt;&lt;span style=&quot;white-space: pre;&quot;&gt;&#x9;&lt;/span&gt;&lt;span style=&quot;white-space: pre;&quot;&gt;&#x9;&lt;/span&gt;uuid&lt;span style=&quot;white-space: pre;&quot;&gt;&#x9;&lt;/span&gt;&lt;span style=&quot;white-space: pre;&quot;&gt;&#x9;&lt;/span&gt;&lt;span style=&quot;white-space: pre;&quot;&gt;&#x9;&lt;/span&gt;&lt;span style=&quot;white-space: pre;&quot;&gt;&#x9;&lt;/span&gt;[NN]&lt;/div&gt;" style="text;fillColor=none;align=left;verticalAlign=middle;spacingLeft=4;spacingRight=4;overflow=hidden;points=[[0,0.5],[1,0.5]];portConstraint=eastwest;rotatable=0;whiteSpace=wrap;html=1;strokeWidth=1;strokeColor=default;" vertex="1" parent="Q2pFIkF7qx4FGtjD1cxp-13">
          <mxGeometry y="60" width="275" height="30" as="geometry" />
        </mxCell>
        <mxCell id="Q2pFIkF7qx4FGtjD1cxp-16" value="event_time&lt;span style=&quot;white-space: pre;&quot;&gt;&#x9;&lt;/span&gt;&lt;span style=&quot;white-space: pre;&quot;&gt;&#x9;&lt;/span&gt;timestamp&lt;span style=&quot;white-space: pre;&quot;&gt;&#x9;&lt;/span&gt;&lt;span style=&quot;white-space: pre;&quot;&gt;&#x9;&lt;/span&gt;[NN]" style="text;fillColor=none;align=left;verticalAlign=middle;spacingLeft=4;spacingRight=4;overflow=hidden;points=[[0,0.5],[1,0.5]];portConstraint=eastwest;rotatable=0;whiteSpace=wrap;html=1;strokeWidth=1;strokeColor=default;" vertex="1" parent="Q2pFIkF7qx4FGtjD1cxp-13">
          <mxGeometry y="90" width="275" height="30" as="geometry" />
        </mxCell>
        <mxCell id="Q2pFIkF7qx4FGtjD1cxp-21" value="occupied&lt;span style=&quot;white-space: pre;&quot;&gt;&#x9;&lt;/span&gt;&lt;span style=&quot;white-space: pre;&quot;&gt;&#x9;&lt;/span&gt;&lt;span style=&quot;white-space: pre;&quot;&gt;&#x9;&lt;/span&gt;bool&lt;span style=&quot;white-space: pre;&quot;&gt;&#x9;&lt;/span&gt;&lt;span style=&quot;white-space: pre;&quot;&gt;&#x9;&lt;/span&gt;&lt;span style=&quot;white-space: pre;&quot;&gt;&#x9;&lt;/span&gt;&lt;span style=&quot;white-space: pre;&quot;&gt;&#x9;&lt;/span&gt;[NN]" style="text;fillColor=none;align=left;verticalAlign=middle;spacingLeft=4;spacingRight=4;overflow=hidden;points=[[0,0.5],[1,0.5]];portConstraint=eastwest;rotatable=0;whiteSpace=wrap;html=1;strokeWidth=1;strokeColor=default;" vertex="1" parent="Q2pFIkF7qx4FGtjD1cxp-13">
          <mxGeometry y="120" width="275" height="30" as="geometry" />
        </mxCell>
        <mxCell id="Q2pFIkF7qx4FGtjD1cxp-24" style="edgeStyle=orthogonalEdgeStyle;rounded=0;orthogonalLoop=1;jettySize=auto;html=1;exitX=1;exitY=0.5;exitDx=0;exitDy=0;entryX=0;entryY=0.5;entryDx=0;entryDy=0;" edge="1" parent="1" source="Q2pFIkF7qx4FGtjD1cxp-2" target="Q2pFIkF7qx4FGtjD1cxp-11">
          <mxGeometry relative="1" as="geometry" />
        </mxCell>
        <mxCell id="Q2pFIkF7qx4FGtjD1cxp-26" style="edgeStyle=orthogonalEdgeStyle;rounded=0;orthogonalLoop=1;jettySize=auto;html=1;exitX=1;exitY=0.5;exitDx=0;exitDy=0;entryX=0;entryY=0.5;entryDx=0;entryDy=0;" edge="1" parent="1" source="Q2pFIkF7qx4FGtjD1cxp-10" target="Q2pFIkF7qx4FGtjD1cxp-13">
          <mxGeometry relative="1" as="geometry" />
        </mxCell>
      </root>
    </mxGraphModel>
  </diagram>
</mxfile>
